<svg width="0" height="0" class="hidden">
  <symbol fill="none" xmlns="http://www.w3.org/2000/svg" viewBox="0 0 28 22" id="footer-telegram-logo">
    <path fill-rule="evenodd" clip-rule="evenodd" d="M23.4608 3.15291C23.6393 3.30222 23.7255 3.5349 23.6872 3.76448L21.0611 19.5214C21.0244 19.7411 20.8789 19.9273 20.6745 20.0159C20.47 20.1045 20.2346 20.0833 20.0493 19.9597L12.1708 14.7074C12.0177 14.6054 11.9145 14.4437 11.8862 14.2619C11.858 14.08 11.9074 13.8947 12.0223 13.751L14.633 10.4877L10.273 13.3944C10.077 13.525 9.82597 13.5407 9.61524 13.4353L4.36293 10.8092C4.12769 10.6915 3.98535 10.4449 4.0012 10.1824C4.01705 9.91983 4.18804 9.6921 4.43573 9.60364L22.8188 3.03826C23.038 2.95998 23.2822 3.00359 23.4608 3.15291ZM6.32626 10.3228L9.86168 12.0905L17.4231 7.0495C17.6925 6.86994 18.0525 6.91349 18.2712 7.1521C18.49 7.3907 18.5022 7.75314 18.3 8.00591L13.495 14.0121L19.9328 18.3039L22.2083 4.65058L6.32626 10.3228Z" fill="currentColor"></path>
  </symbol>
  <symbol fill="none" xmlns="http://www.w3.org/2000/svg" viewBox="0 0 28 22" id="footer-vkontakte-logo">
    <path d="M1 5.33876C1 4.48373 1.5151 4.02268 2.54531 3.95562L6.51515 3.98077C6.78158 3.98077 6.95921 4.10651 7.04802 4.35799C7.45655 5.61538 7.91392 6.70094 8.42014 7.61465C8.92637 8.52835 9.58801 9.58038 10.4051 10.7707C10.4761 10.9216 10.5916 10.997 10.7514 10.997C10.8758 10.997 10.9735 10.9384 11.0445 10.821L11.1244 10.5444L11.1511 6.19379C11.1511 5.89201 11.0756 5.69083 10.9246 5.59024C10.7736 5.48965 10.4939 5.4142 10.0853 5.36391C9.76563 5.31361 9.60577 5.12919 9.60577 4.81065C9.60577 4.74359 9.61465 4.69329 9.63241 4.65976C10.0054 3.57002 11.0711 3.02515 12.8296 3.02515L14.3216 3C14.9966 3 15.5561 3.15927 16.0001 3.47781C16.4442 3.79635 16.6662 4.29931 16.6662 4.98669V10.6953C16.7906 10.7791 16.906 10.821 17.0126 10.821C17.279 10.821 17.5099 10.6701 17.7053 10.3683C19.6592 7.78649 20.716 6.05966 20.8759 5.18787C20.8759 5.1711 20.8936 5.12919 20.9291 5.06213C21.0535 4.81065 21.2577 4.5927 21.5419 4.40828C21.8261 4.22387 22.0748 4.09813 22.288 4.03107C22.359 3.99753 22.4389 3.98077 22.5277 3.98077H26.6574L26.9239 4.00592C27.2791 4.00592 27.5544 4.16519 27.7498 4.48373C27.8209 4.58432 27.8697 4.69329 27.8964 4.81065C27.923 4.92801 27.9408 5.04536 27.9496 5.16272C27.9585 5.28008 27.963 5.34714 27.963 5.36391V5.53994C27.8386 6.22732 27.5233 6.9608 27.0171 7.74038C26.5109 8.51997 25.867 9.36243 25.0855 10.2678C24.304 11.1731 23.8155 11.7682 23.6201 12.0533C23.4603 12.2544 23.3803 12.4389 23.3803 12.6065C23.3803 12.7406 23.4514 12.8915 23.5935 13.0592L27.4834 17.6864C27.6965 17.9546 27.8031 18.248 27.8031 18.5666C27.8031 18.9522 27.6432 19.2707 27.3235 19.5222C27.0038 19.7737 26.6219 19.9162 26.1779 19.9497L25.7249 19.9749H21.6752C21.6574 19.9749 21.6219 19.979 21.5686 19.9874C21.5153 19.9958 21.4798 20 21.462 20C21.0712 20 20.7071 19.8407 20.3696 19.5222C20.2453 19.3881 19.4105 18.3989 17.8652 16.5547C17.7764 16.4374 17.652 16.3284 17.4922 16.2278C17.4211 16.4961 17.3279 16.8817 17.2124 17.3846C17.097 17.8876 17.0126 18.248 16.9593 18.466L16.8794 18.8935C16.7018 19.4803 16.3287 19.8323 15.7604 19.9497L15.3874 19.9749H12.7763C11.3021 19.9749 9.83224 19.3378 8.36686 18.0636C6.90148 16.7894 5.58264 15.1423 4.41034 13.122C3.23803 11.1018 2.14566 8.75049 1.13322 6.06805C1.04441 5.8501 1 5.607 1 5.33876ZM17.0126 11.8521C16.6396 11.8521 16.3021 11.7557 16.0001 11.5629C15.6982 11.3701 15.5472 11.106 15.5472 10.7707V4.98669C15.5472 4.65138 15.4584 4.41248 15.2808 4.26997C15.1032 4.12747 14.7923 4.05621 14.3483 4.05621L12.8296 4.10651C12.0658 4.10651 11.4886 4.23225 11.0978 4.48373C11.8793 4.8358 12.2701 5.40582 12.2701 6.19379V10.6198C12.2346 11.039 12.0569 11.3868 11.7372 11.6635C11.4175 11.9401 11.0623 12.0784 10.6715 12.0784C10.1386 12.0784 9.7301 11.8353 9.44591 11.3491C8.06046 9.37081 7.03025 7.4931 6.35529 5.71598L6.1155 5.06213L2.57195 5.03698C2.34104 5.03698 2.21227 5.04956 2.18562 5.0747C2.15898 5.09985 2.14566 5.1711 2.14566 5.28846C2.14566 5.43935 2.16342 5.59862 2.19895 5.76627L2.75845 7.17456C4.25048 10.8126 5.87127 13.6795 7.62085 15.7751C9.37042 17.8708 11.0889 18.9186 12.7763 18.9186H15.4406C15.5472 18.9186 15.6271 18.8893 15.6804 18.8306C15.7337 18.7719 15.7781 18.6588 15.8136 18.4911L15.8669 18.2396L16.3732 16.0266C16.5152 15.7249 16.6396 15.5237 16.7462 15.4231C16.9415 15.2387 17.1725 15.1465 17.4389 15.1465C17.8652 15.1465 18.3003 15.3895 18.7444 15.8757L21.0091 18.5917C21.1512 18.8097 21.3022 18.9186 21.462 18.9186H25.8581C26.391 18.9186 26.6574 18.7929 26.6574 18.5414C26.6574 18.4576 26.6308 18.3738 26.5775 18.2899L22.7142 13.7382C22.4123 13.3861 22.2613 13.0089 22.2613 12.6065C22.2613 12.2041 22.4034 11.8185 22.6876 11.4497C22.9185 11.1144 23.367 10.557 24.0331 9.77737C24.6992 8.99778 25.2809 8.26849 25.7782 7.5895C26.2756 6.9105 26.6042 6.29438 26.764 5.74112L26.8439 5.4142C26.8262 5.38067 26.8173 5.32618 26.8173 5.25074C26.8173 5.1753 26.8084 5.11243 26.7907 5.06213H22.6077C22.3412 5.16272 22.1281 5.31361 21.9682 5.51479L21.8084 5.9926C21.3643 7.14941 20.2009 8.93491 18.3181 11.3491C17.9451 11.6844 17.5099 11.8521 17.0126 11.8521Z" fill="currentColor"></path>
  </symbol>
  <symbol fill="none" xmlns="http://www.w3.org/2000/svg" viewBox="0 0 28 22" id="footer-youtube-logo">
    <path d="M17.8509 10.7927L12.6145 7.30184C12.5159 7.23691 12.4016 7.19985 12.2837 7.19459C12.1657 7.18934 12.0486 7.21608 11.9446 7.27198C11.8406 7.32789 11.7537 7.41087 11.693 7.51215C11.6324 7.61343 11.6002 7.72924 11.6 7.84729V14.8291C11.6001 14.9481 11.6327 15.0648 11.6942 15.1667C11.7557 15.2686 11.8438 15.3518 11.9491 15.4073C12.0524 15.4631 12.1691 15.4895 12.2864 15.4837C12.4037 15.478 12.5172 15.4402 12.6145 15.3746L17.8509 11.8837C17.9409 11.8239 18.0148 11.7429 18.0658 11.6477C18.1169 11.5526 18.1436 11.4462 18.1436 11.3382C18.1436 11.2302 18.1169 11.1239 18.0658 11.0287C18.0148 10.9335 17.9409 10.8525 17.8509 10.7927ZM12.9091 13.6073V9.06911L16.3127 11.3382L12.9091 13.6073ZM25.3891 5.04366C25.2942 4.67547 25.1131 4.33511 24.8609 4.05061C24.6086 3.76611 24.2924 3.54561 23.9382 3.40729C20.2182 1.9782 14.2509 2.00002 14 2.00002C13.7491 2.00002 7.78182 1.9782 4.06182 3.40729C3.70764 3.54561 3.3914 3.76611 3.13914 4.05061C2.88689 4.33511 2.70584 4.67547 2.61091 5.04366C2.32727 6.11275 2 8.07638 2 11.3382C2 14.6 2.32727 16.5637 2.61091 17.6327C2.70584 18.0009 2.88689 18.3413 3.13914 18.6258C3.3914 18.9103 3.70764 19.1308 4.06182 19.2691C7.78182 20.6982 13.7491 20.6764 14 20.6764H14.0764C14.8291 20.6764 20.3927 20.6327 23.9382 19.2691C24.2924 19.1308 24.6086 18.9103 24.8609 18.6258C25.1131 18.3413 25.2942 18.0009 25.3891 17.6327C25.6727 16.5637 26 14.6 26 11.3382C26 8.07638 25.6727 6.11275 25.3891 5.04366ZM24.1236 17.3055C24.0807 17.472 23.999 17.6259 23.8853 17.7548C23.7715 17.8838 23.6289 17.984 23.4691 18.0473C19.9782 19.3891 14.0655 19.3673 14 19.3673C13.9345 19.3673 8.02182 19.3891 4.53091 18.0473C4.37107 17.984 4.22846 17.8838 4.11471 17.7548C4.00096 17.6259 3.91929 17.472 3.87636 17.3055C3.61455 16.3018 3.30909 14.4582 3.30909 11.3382C3.30909 8.2182 3.61455 6.37457 3.87636 5.37093C3.91929 5.20445 4.00096 5.05047 4.11471 4.92156C4.22846 4.79264 4.37107 4.69243 4.53091 4.62911C8.02182 3.28729 13.9345 3.30911 14 3.30911C14.0655 3.30911 19.9782 3.28729 23.4691 4.62911C23.6289 4.69243 23.7715 4.79264 23.8853 4.92156C23.999 5.05047 24.0807 5.20445 24.1236 5.37093C24.3855 6.37457 24.6909 8.2182 24.6909 11.3382C24.6909 14.4582 24.3855 16.3018 24.1236 17.3055Z" fill="currentColor"></path>
  </symbol>
  <symbol fill="none" xmlns="http://www.w3.org/2000/svg" viewBox="0 0 113 16" id="html-academy-logo-footer">
    <path d="M0.28125 12V0.546875H1.79688V5.25H7.75V0.546875H9.26562V12H7.75V6.60156H1.79688V12H0.28125ZM14.7109 12V1.89844H10.9375V0.546875H20.0156V1.89844H16.2266V12H14.7109ZM21.5312 12V0.546875H23.8125L26.5234 8.65625C26.7734 9.41146 26.9557 9.97656 27.0703 10.3516C27.2005 9.9349 27.4036 9.32292 27.6797 8.51562L30.4219 0.546875H32.4609V12H31V2.41406L27.6719 12H26.3047L22.9922 2.25V12H21.5312ZM34.8438 12V0.546875H36.3594V10.6484H42V12H34.8438ZM45.5234 12L49.9219 0.546875H51.5547L56.2422 12H54.5156L53.1797 8.53125H48.3906L47.1328 12H45.5234ZM48.8281 7.29688H52.7109L51.5156 4.125C51.151 3.16146 50.8802 2.36979 50.7031 1.75C50.5573 2.48438 50.3516 3.21354 50.0859 3.9375L48.8281 7.29688ZM62.6875 8.96094L64.0703 9.14062C63.9193 10.0938 63.5312 10.8411 62.9062 11.3828C62.2865 11.9193 61.5234 12.1875 60.6172 12.1875C59.4818 12.1875 58.5677 11.8177 57.875 11.0781C57.1875 10.3333 56.8438 9.26823 56.8438 7.88281C56.8438 6.98698 56.9922 6.20312 57.2891 5.53125C57.5859 4.85938 58.0365 4.35677 58.6406 4.02344C59.25 3.6849 59.9115 3.51562 60.625 3.51562C61.526 3.51562 62.263 3.74479 62.8359 4.20312C63.4089 4.65625 63.776 5.30208 63.9375 6.14062L62.5703 6.35156C62.4401 5.79427 62.2083 5.375 61.875 5.09375C61.5469 4.8125 61.1484 4.67188 60.6797 4.67188C59.9714 4.67188 59.3958 4.92708 58.9531 5.4375C58.5104 5.94271 58.2891 6.74479 58.2891 7.84375C58.2891 8.95833 58.5026 9.76823 58.9297 10.2734C59.3568 10.7786 59.9141 11.0312 60.6016 11.0312C61.1536 11.0312 61.6146 10.862 61.9844 10.5234C62.3542 10.1849 62.5885 9.66406 62.6875 8.96094ZM70.6875 10.9766C70.1667 11.4193 69.6641 11.7318 69.1797 11.9141C68.7005 12.0964 68.1849 12.1875 67.6328 12.1875C66.7214 12.1875 66.0208 11.9661 65.5312 11.5234C65.0417 11.0755 64.7969 10.5052 64.7969 9.8125C64.7969 9.40625 64.888 9.03646 65.0703 8.70312C65.2578 8.36458 65.5 8.09375 65.7969 7.89062C66.099 7.6875 66.4375 7.53385 66.8125 7.42969C67.0885 7.35677 67.5052 7.28646 68.0625 7.21875C69.1979 7.08333 70.0339 6.92188 70.5703 6.73438C70.5755 6.54167 70.5781 6.41927 70.5781 6.36719C70.5781 5.79427 70.4453 5.39062 70.1797 5.15625C69.8203 4.83854 69.2865 4.67969 68.5781 4.67969C67.9167 4.67969 67.4271 4.79688 67.1094 5.03125C66.7969 5.26042 66.5651 5.66927 66.4141 6.25781L65.0391 6.07031C65.1641 5.48177 65.3698 5.00781 65.6562 4.64844C65.9427 4.28385 66.3568 4.00521 66.8984 3.8125C67.4401 3.61458 68.0677 3.51562 68.7812 3.51562C69.4896 3.51562 70.0651 3.59896 70.5078 3.76562C70.9505 3.93229 71.276 4.14323 71.4844 4.39844C71.6927 4.64844 71.8385 4.96615 71.9219 5.35156C71.9688 5.59115 71.9922 6.02344 71.9922 6.64844V8.52344C71.9922 9.83073 72.0208 10.6589 72.0781 11.0078C72.1406 11.3516 72.2604 11.6823 72.4375 12H70.9688C70.8229 11.7083 70.7292 11.3672 70.6875 10.9766ZM70.5703 7.83594C70.0599 8.04427 69.2943 8.22135 68.2734 8.36719C67.6953 8.45052 67.2865 8.54427 67.0469 8.64844C66.8073 8.7526 66.6224 8.90625 66.4922 9.10938C66.362 9.30729 66.2969 9.52865 66.2969 9.77344C66.2969 10.1484 66.4375 10.4609 66.7188 10.7109C67.0052 10.9609 67.4219 11.0859 67.9688 11.0859C68.5104 11.0859 68.9922 10.9688 69.4141 10.7344C69.8359 10.4948 70.1458 10.1693 70.3438 9.75781C70.4948 9.4401 70.5703 8.97135 70.5703 8.35156V7.83594ZM79.5625 12V10.9531C79.0365 11.776 78.263 12.1875 77.2422 12.1875C76.5807 12.1875 75.9714 12.0052 75.4141 11.6406C74.862 11.276 74.4323 10.7682 74.125 10.1172C73.8229 9.46094 73.6719 8.70833 73.6719 7.85938C73.6719 7.03125 73.8099 6.28125 74.0859 5.60938C74.362 4.93229 74.776 4.41406 75.3281 4.05469C75.8802 3.69531 76.4974 3.51562 77.1797 3.51562C77.6797 3.51562 78.125 3.6224 78.5156 3.83594C78.9062 4.04427 79.224 4.31771 79.4688 4.65625V0.546875H80.8672V12H79.5625ZM75.1172 7.85938C75.1172 8.92188 75.3411 9.71615 75.7891 10.2422C76.237 10.7682 76.7656 11.0312 77.375 11.0312C77.9896 11.0312 78.5104 10.7812 78.9375 10.2812C79.3698 9.77604 79.5859 9.00781 79.5859 7.97656C79.5859 6.84115 79.3672 6.00781 78.9297 5.47656C78.4922 4.94531 77.9531 4.67969 77.3125 4.67969C76.6875 4.67969 76.1641 4.9349 75.7422 5.44531C75.3255 5.95573 75.1172 6.76042 75.1172 7.85938ZM88.7656 9.32812L90.2188 9.50781C89.9896 10.3568 89.5651 11.0156 88.9453 11.4844C88.3255 11.9531 87.5339 12.1875 86.5703 12.1875C85.3568 12.1875 84.3932 11.8151 83.6797 11.0703C82.9714 10.3203 82.6172 9.27083 82.6172 7.92188C82.6172 6.52604 82.9766 5.44271 83.6953 4.67188C84.4141 3.90104 85.3464 3.51562 86.4922 3.51562C87.6016 3.51562 88.5078 3.89323 89.2109 4.64844C89.9141 5.40365 90.2656 6.46615 90.2656 7.83594C90.2656 7.91927 90.263 8.04427 90.2578 8.21094H84.0703C84.1224 9.1224 84.3802 9.82031 84.8438 10.3047C85.3073 10.7891 85.8854 11.0312 86.5781 11.0312C87.0938 11.0312 87.5339 10.8958 87.8984 10.625C88.263 10.3542 88.5521 9.92188 88.7656 9.32812ZM84.1484 7.05469H88.7812C88.7188 6.35677 88.5417 5.83333 88.25 5.48438C87.8021 4.94271 87.2214 4.67188 86.5078 4.67188C85.862 4.67188 85.3177 4.88802 84.875 5.32031C84.4375 5.7526 84.1953 6.33073 84.1484 7.05469ZM91.9922 12V3.70312H93.25V4.86719C93.5104 4.46094 93.8568 4.13542 94.2891 3.89062C94.7214 3.64062 95.2135 3.51562 95.7656 3.51562C96.3802 3.51562 96.8828 3.64323 97.2734 3.89844C97.6693 4.15365 97.9479 4.51042 98.1094 4.96875C98.7656 4 99.6198 3.51562 100.672 3.51562C101.495 3.51562 102.128 3.74479 102.57 4.20312C103.013 4.65625 103.234 5.35677 103.234 6.30469V12H101.836V6.77344C101.836 6.21094 101.789 5.80729 101.695 5.5625C101.607 5.3125 101.443 5.11198 101.203 4.96094C100.964 4.8099 100.682 4.73438 100.359 4.73438C99.776 4.73438 99.2917 4.92969 98.9062 5.32031C98.5208 5.70573 98.3281 6.32552 98.3281 7.17969V12H96.9219V6.60938C96.9219 5.98438 96.8073 5.51562 96.5781 5.20312C96.349 4.89062 95.974 4.73438 95.4531 4.73438C95.0573 4.73438 94.6901 4.83854 94.3516 5.04688C94.0182 5.25521 93.776 5.5599 93.625 5.96094C93.474 6.36198 93.3984 6.9401 93.3984 7.69531V12H91.9922ZM105.258 15.1953L105.102 13.875C105.409 13.9583 105.677 14 105.906 14C106.219 14 106.469 13.9479 106.656 13.8438C106.844 13.7396 106.997 13.5938 107.117 13.4062C107.206 13.2656 107.349 12.9167 107.547 12.3594C107.573 12.2812 107.615 12.1667 107.672 12.0156L104.523 3.70312H106.039L107.766 8.50781C107.99 9.11719 108.19 9.75781 108.367 10.4297C108.529 9.78385 108.721 9.15365 108.945 8.53906L110.719 3.70312H112.125L108.969 12.1406C108.63 13.0521 108.367 13.6797 108.18 14.0234C107.93 14.487 107.643 14.8255 107.32 15.0391C106.997 15.2578 106.612 15.3672 106.164 15.3672C105.893 15.3672 105.591 15.3099 105.258 15.1953Z" fill="currentColor"></path>
  </symbol>
  <symbol fill="none" xmlns="http://www.w3.org/2000/svg" viewBox="0 0 27 34" id="html-academy-logo-icon-footer">
    <g clip-path="url(#clip0_95_230)">
      <path d="M13.6426 0.0157537L13.5 0L0 1.40733V26.0129L13.5 34L27 26.0129V1.40733L13.6426 0.0157537ZM25.2344 25.0151L13.5 31.9573L1.76561 25.0151V14.9293L13.4507 21.8451L13.4701 23.0984L5.45351 18.3548L5.44295 19.5801L13.4894 24.3885L13.5088 25.675L5.46408 20.9174L5.45351 22.1427L13.5 26.9511L21.6239 22.1182V20.8929V16.909L25.2432 14.7595L25.2344 25.0151ZM25.2344 13.4519L22.0147 15.3319L20.5325 16.2071L13.4666 12.0201L13.456 13.2454L19.4957 16.818L19.4429 16.8495L19.3126 16.9247L18.4536 17.4166L13.4666 14.4689L13.456 15.6942L17.3921 18.0222L16.4591 18.6314L16.438 18.6436L13.4666 16.902L13.456 18.1273L15.4029 19.2615L13.4155 20.4483L1.7973 13.5762L13.4349 6.61831L25.2344 13.4519ZM25.2344 12.2266L13.4401 5.31075L1.76561 12.2196V2.9897L13.5 1.76442L25.2344 2.9897V12.2266Z" fill="currentColor"></path>
    </g>
    <defs>
      <clipPath id="clip0_95_230">
        <rect width="27" height="34" fill="white"></rect>
      </clipPath>
    </defs>
  </symbol>
  <symbol xmlns="http://www.w3.org/2000/svg" viewBox="0 0 60 60" id="htmlacademy">
    <path fill="#2E368F" d="M30.2 5h-.2l-19.7 2.1v36.2l19.7 11.7 19.7-11.7v-36.2l-19.5-2.1zm17 36.8l-17.2 10.2-17.2-10.2v-14.8l17.1 10.2v1.8l-11.7-7v1.8l11.8 7.1v1.9l-11.8-7v1.8l11.8 7 11.9-7.1v-7.6l5.3-3.2v15.1zm-.1-17l-4.7 2.8-2.2 1.3-10.3-6.1v1.8l8.8 5.3h-.1l-.2.1-1.3.7-7.3-4.3v1.8l5.8 3.4-1.4.9-4.3-2.6v1.8l2.9 1.7-2.9 1.7-17-10.1 17-10.2 17.2 10zm.1-1.8l-17.3-10.2-17.1 10.2v-13.6l17.2-1.8 17.2 1.8v13.6z"></path>
  </symbol>
  <symbol fill="none" xmlns="http://www.w3.org/2000/svg" viewBox="0 0 24 12" id="icon-arrow">
    <rect width="24" height="12" fill="#E5E5E5"></rect>
    <g clip-path="url(#clip0_0_1)">
      <rect width="768" height="4331" transform="translate(-215 -1244)" fill="white"></rect>
      <rect x="-185" y="-294" width="708" height="372" fill="#F2F2F2"></rect>
      <line y1="6" x2="18" y2="6" stroke="black" stroke-width="2"></line>
      <path d="M24 6L17.25 11.1962L17.25 0.803848L24 6Z" fill="black"></path>
    </g>
    <defs>
      <clipPath id="clip0_0_1">
        <rect width="768" height="4331" fill="white" transform="translate(-215 -1244)"></rect>
      </clipPath>
    </defs>
  </symbol>
  <symbol fill="none" xmlns="http://www.w3.org/2000/svg" viewBox="0 0 19 14" id="icon-email">
    <line x1="1.1793" y1="6" x2="1.1793" y2="14" stroke="#222222" stroke-width="1.3"></line>
    <line x1="18.1793" y1="6" x2="18.1793" y2="14" stroke="#222222" stroke-width="1.3"></line>
    <line x1="0.529297" y1="13.35" x2="18.5293" y2="13.35" stroke="#222222" stroke-width="1.3"></line>
    <line x1="0.529297" y1="1.35" x2="18.5293" y2="1.35" stroke="#222222" stroke-width="1.3"></line>
    <path d="M17.8793 3.1821L9.52932 9.67654L1.1793 3.18209V1.65H4.0293L9.52932 1.65H14.5293H17.8793V3.1821Z" stroke="#222222" stroke-width="1.3"></path>
  </symbol>
  <symbol fill="none" xmlns="http://www.w3.org/2000/svg" viewBox="0 0 20 20" id="icon-phone">
    <g clip-path="url(#clip0_2403_1829)">
      <path d="M17.9 9.4H9.40002V10.6H17.9L15.8 12.7L16.7 13.6L19.8 10.5C19.8974 10.3702 19.95 10.2123 19.95 10.05C19.95 9.88772 19.8974 9.72982 19.8 9.6L16.7 6.5L15.8 7.4L17.9 9.4Z" fill="black"></path>
      <path d="M8.09995 19.4V13.2C8.0884 13.0447 8.02148 12.8987 7.91136 12.7886C7.80125 12.6785 7.65525 12.6116 7.49995 12.6H3.09995C3.1051 12.9167 3.23318 13.2189 3.45712 13.4428C3.68106 13.6668 3.9833 13.7949 4.29995 13.8H6.79995V18.8H3.09995C2.86319 18.8149 2.62585 18.7825 2.4017 18.7048C2.17756 18.6271 1.97109 18.5057 1.7943 18.3475C1.61751 18.1893 1.47393 17.9976 1.37189 17.7834C1.26986 17.5693 1.21142 17.337 1.19995 17.1V3.10001C1.19175 2.6373 1.3651 2.18977 1.68286 1.85331C2.00062 1.51686 2.43752 1.31824 2.89995 1.30001H6.79995V6.30001H4.39995C4.0833 6.30516 3.78106 6.43324 3.55712 6.65718C3.33318 6.88112 3.2051 7.18336 3.19995 7.50001H7.59995C7.75525 7.48846 7.90125 7.42154 8.01136 7.31142C8.12148 7.2013 8.1884 7.05531 8.19995 6.90001V0.600012C8.15226 0.443872 8.06111 0.304534 7.93715 0.198285C7.81319 0.0920352 7.66155 0.0232649 7.49995 1.23734e-05H3.09995C2.70593 -0.0133408 2.31315 0.0511002 1.94405 0.189651C1.57495 0.328202 1.23678 0.538145 0.948872 0.807477C0.660965 1.07681 0.428969 1.40025 0.266146 1.7593C0.103324 2.11835 0.0128689 2.50598 -4.64045e-05 2.90001V16.8C-0.0290254 17.1977 0.0245894 17.597 0.157426 17.9729C0.290263 18.3489 0.499448 18.6932 0.771825 18.9844C1.0442 19.2756 1.37388 19.5072 1.74012 19.6648C2.10637 19.8224 2.50126 19.9024 2.89995 19.9H7.49995C7.57344 19.915 7.64937 19.9133 7.7221 19.895C7.79484 19.8767 7.86253 19.8423 7.92015 19.7942C7.97777 19.7462 8.02385 19.6859 8.05497 19.6176C8.0861 19.5494 8.10147 19.475 8.09995 19.4Z" fill="black"></path>
    </g>
    <defs>
      <clipPath id="clip0_2403_1829">
        <rect width="20" height="20" fill="white"></rect>
      </clipPath>
    </defs>
  </symbol>
  <symbol fill="none" xmlns="http://www.w3.org/2000/svg" viewBox="0 0 60 60" id="icon-plus">
    <line x1="31" x2="31" y2="60" stroke="#D3D3D3" stroke-width="2"></line>
    <line x1="60" y1="31" y2="31" stroke="#D3D3D3" stroke-width="2"></line>
  </symbol>
  <symbol fill="none" xmlns="http://www.w3.org/2000/svg" viewBox="0 0 128 24" id="footer-mini-logo">
   <g clip-path="url(#clip0_2403_914)">
     <path d="M1.60253 22.0513C0.468358 20.3682 -0.0946573 18.3503 3.016e-05 16.3077V7.79487C-0.137317 5.73031 0.390444 3.67661 1.50238 1.94872C2.6041 0.615385 4.30676 0 6.81067 0C9.31458 0 10.9171 0.615385 11.9187 1.74359C13.006 3.17255 13.5409 4.96181 13.421 6.76923V8.82051H8.51333V6.46154C8.55297 5.76385 8.45065 5.06533 8.21286 4.41026C8.08576 4.14583 7.88431 3.9264 7.63443 3.78018C7.38455 3.63395 7.09766 3.56763 6.81067 3.58974C6.10958 3.58974 5.60879 3.79487 5.40848 4.30769C5.18191 5.03643 5.08025 5.79984 5.10801 6.5641V17.5385C5.05512 18.2799 5.19327 19.0227 5.50864 19.6923C5.70895 20.2051 6.20973 20.4103 6.91083 20.4103C7.61192 20.4103 8.01255 20.2051 8.21286 19.6923C8.44058 18.9992 8.54242 18.2692 8.51333 17.5385V15.0769H13.421V17.1282C13.5229 18.9651 12.9911 20.7803 11.9187 22.2564C10.9171 23.4872 9.21443 24.1026 6.81067 24.1026C4.40692 24 2.6041 23.3846 1.60253 22.0513Z" fill="#111111"></path>
     <path d="M19.3302 0.307617H25.0391L29.2457 23.6922H24.6385L23.8373 18.7692H20.5321L19.7309 23.6922H15.0235L19.3302 0.307617ZM23.4366 15.6922L22.2348 6.56403L21.0329 15.6922H23.4366Z" fill="#111111"></path>
     <path d="M32.7511 4.20505H29.3458V0.307617H41.2645V4.10249H37.8591V23.6922H32.7511V4.20505Z" fill="#111111"></path>
     <path d="M50.3787 0.307617H59.1925V2.76916H53.4836V10.4615H58.0908V12.8204H53.4836V21.4358H59.1925V23.7948H50.2786V0.307617H50.3787Z" fill="#111111"></path>
     <path d="M61.7966 0.307617H64L70.5102 15.7948V0.307617H73.1143V23.6922H71.1111L64.5008 7.69223V23.6922H61.7966V0.307617Z" fill="#111111"></path>
     <path d="M76.119 0.307617H84.9327V2.76916H79.2238V10.4615H83.831V12.8204H79.2238V21.4358H84.9327V23.7948H76.119V0.307617Z" fill="#111111"></path>
     <path d="M87.5368 0.3076H92.144C93.9564 0.179397 95.7575 0.685711 97.252 1.7435C98.3537 2.66657 98.8545 4.3076 98.8545 6.46145C98.8545 9.4358 97.9531 11.282 96.0501 11.8973L99.2551 23.5897H96.1503L93.1456 12.6153H90.6416V23.5897H87.4366V0.3076H87.5368ZM91.9437 10.3589C92.9762 10.446 94.0054 10.1553 94.8482 9.53837C95.4492 9.02555 95.7496 7.99991 95.7496 6.46145C95.7774 5.69719 95.6757 4.93378 95.4492 4.20504C95.2237 3.68211 94.8366 3.24964 94.3474 2.97427C93.6576 2.65236 92.9003 2.51137 92.144 2.56401H90.7418V10.2563H91.9437V10.3589Z" fill="#111111"></path>
     <path d="M102.861 21.9489C101.82 20.1556 101.331 18.0824 101.458 16.0002V8.20531C101.434 6.719 101.602 5.23592 101.959 3.79506C102.294 2.71836 102.962 1.78243 103.862 1.12839C104.981 0.450519 106.271 0.129161 107.568 0.205314C109.671 0.205314 111.174 0.718135 112.075 1.84634C113.112 3.33607 113.608 5.15002 113.477 6.97455V7.79506H110.473V7.07711C110.477 6.21813 110.41 5.36032 110.272 4.51301C110.188 3.97756 109.9 3.49816 109.471 3.17967C108.908 2.80128 108.24 2.62124 107.568 2.66685C106.85 2.61973 106.139 2.83809 105.565 3.28224C105.329 3.48554 105.137 3.73594 104.999 4.01811C104.861 4.30029 104.781 4.60829 104.764 4.92326C104.632 5.84017 104.565 6.76567 104.563 7.69249V16.4104C104.49 17.7386 104.694 19.0676 105.164 20.3079C105.565 21.1284 106.366 21.4361 107.568 21.4361C108.043 21.4966 108.524 21.4121 108.952 21.1931C109.379 20.9741 109.734 20.6304 109.972 20.2053C110.501 18.9083 110.741 17.5067 110.673 16.1027V14.4617H107.768V12.1028H113.577V23.6925H111.574L111.274 21.0258C111.011 21.9195 110.464 22.6977 109.72 23.2366C108.976 23.7756 108.078 24.0443 107.167 24.0002C106.34 24.05 105.513 23.8887 104.761 23.5307C104.01 23.1727 103.357 22.6291 102.861 21.9489Z" fill="#111111"></path>
     <path d="M119.988 15.4871L115.08 0.410156H118.085L121.59 11.6922L124.995 0.410156H128L123.092 15.4871V23.6922H120.088V15.4871H119.988Z" fill="#111111"></path>
   </g>
   <defs>
     <clipPath id="clip0_2403_914">
       <rect width="128" height="24" fill="white"></rect>
     </clipPath>
   </defs>
 </symbol>

</svg>
